<svg id="e4imc56fed7s1" xmlns="http://www.w3.org/2000/svg" xmlns:xlink="http://www.w3.org/1999/xlink" viewBox="0 0 200 200" shape-rendering="geometricPrecision" text-rendering="geometricPrecision"><style><![CDATA[#e4imc56fed7s2_to {animation: e4imc56fed7s2_to__to 3000ms linear infinite normal forwards}@keyframes e4imc56fed7s2_to__to { 0% {transform: translate(44.682834px,155.026898px)} 50% {transform: translate(72.341417px,127.513449px)} 100% {transform: translate(44.682834px,155.026898px)} }#e4imc56fed7s2_ts {animation: e4imc56fed7s2_ts__ts 3000ms linear infinite normal forwards}@keyframes e4imc56fed7s2_ts__ts { 0% {transform: rotate(-180deg) scale(-0.100000,0.100000)} 50% {transform: rotate(-180deg) scale(-0.050000,0.050000)} 100% {transform: rotate(-180deg) scale(-0.100000,0.100000)} }#e4imc56fed7s2 {animation: e4imc56fed7s2_c_o 3000ms linear infinite normal forwards}@keyframes e4imc56fed7s2_c_o { 0% {opacity: 1} 50% {opacity: 0.500000} 100% {opacity: 1} }]]></style><defs><filter id="e4imc56fed7s2-filter" x="-400%" width="600%" y="-400%" height="600%"><feColorMatrix id="e4imc56fed7s2-filter-grayscale-0" type="matrix" values="1 0 0 0 0 0 1 0 0 0 0 0 1 0 0 0 0 0 1 0" result="result"/><feColorMatrix id="e4imc56fed7s2-filter-hue-rotate-0" type="hueRotate" values="-360" result="result"/><feComponentTransfer id="e4imc56fed7s2-filter-invert-0" result="result"><feFuncR id="e4imc56fed7s2-filter-invert-0-R" type="table" tableValues="0 1"/><feFuncG id="e4imc56fed7s2-filter-invert-0-G" type="table" tableValues="0 1"/><feFuncB id="e4imc56fed7s2-filter-invert-0-B" type="table" tableValues="0 1"/></feComponentTransfer><feGaussianBlur id="e4imc56fed7s2-filter-blur-0" stdDeviation="0,0" result="result"/></filter></defs><g id="e4imc56fed7s2_to" transform="translate(44.682834,155.026898)"><g id="e4imc56fed7s2_ts" transform="rotate(-180) scale(-0.100000,0.100000)"><g id="e4imc56fed7s2" transform="translate(100,100)" filter="url(#e4imc56fed7s2-filter)"><path id="e4imc56fed7s3" d="M825,1836C771,1819,745,1804,702,1766C670,1737,656,1732,593,1727C544,1723,503,1713,465,1694C401,1663,327,1587,311,1537C303,1513,288,1498,255,1482C123,1418,50,1276,79,1138C88,1098,88,1069,79,1020C56,890,101,785,220,697C331,614,372,597,475,592C537,590,577,593,605,603C644,617,646,617,691,584C717,565,757,543,781,534C843,511,963,511,1026,534C1077,553,1078,553,1111,532C1130,521,1174,504,1208,494C1263,479,1279,469,1322,421C1349,390,1403,318,1442,260C1481,202,1514,153,1515,152C1522,144,1670,254,1670,267C1670,274,1652,332,1630,395C1608,459,1596,510,1601,510C1607,510,1638,534,1669,564C1700,594,1745,635,1769,656C1834,713,1870,795,1870,888C1870,947,1874,968,1893,998C1929,1055,1940,1096,1940,1174C1940,1264,1908,1337,1841,1400C1808,1431,1786,1464,1770,1505C1725,1619,1579,1739,1449,1769C1396,1782,1258,1783,1209,1771C1177,1764,1166,1767,1130,1791C1048,1846,918,1865,825,1836ZM1002,1720C1053,1705,1057,1694,1024,1658C979,1610,920,1588,860,1596C819,1601,810,1600,810,1588C810,1579,807,1552,804,1526C798,1482,798,1480,823,1480C871,1480,877,1473,872,1422C868,1380,883,1263,894,1253C900,1247,984,1260,998,1269C1007,1274,1007,1292,999,1339C981,1436,994,1463,1098,1557C1146,1601,1200,1642,1219,1648C1238,1655,1286,1660,1326,1660C1493,1660,1631,1559,1676,1404C1684,1374,1696,1350,1701,1350C1719,1350,1793,1275,1807,1243C1823,1203,1823,1122,1807,1093C1794,1070,1794,1071,1743,1123C1681,1185,1652,1246,1641,1335C1637,1370,1632,1401,1629,1403C1627,1405,1601,1404,1573,1402C1523,1398,1520,1396,1520,1372C1520,1341,1536,1238,1545,1209C1551,1191,1546,1191,1427,1197L1303,1203L1296,1150C1292,1121,1291,1095,1294,1093C1297,1090,1361,1084,1438,1080C1601,1071,1643,1057,1708,987C1746,945,1750,935,1750,890C1750,859,1742,824,1730,800C1710,762,1654,710,1632,710C1625,710,1609,692,1595,670C1568,627,1535,606,1478,596C1457,592,1440,586,1440,581C1440,577,1453,534,1470,484C1497,401,1498,397,1477,425C1465,441,1426,487,1391,527C1334,592,1324,600,1291,600C1271,600,1238,608,1217,618L1179,635L1269,705C1372,785,1414,803,1462,789C1513,775,1518,777,1530,821C1536,843,1543,867,1546,874C1549,883,1536,891,1506,899C1393,927,1327,903,1165,774C1032,669,994,646,935,636C885,628,812,649,764,685L728,712L732,827C735,950,734,947,799,990L822,1006L794,1053C778,1079,761,1100,756,1100C733,1100,658,1046,644,1019C630,991,627,990,612,1003C588,1023,424,1120,414,1120C406,1120,350,1036,350,1025C350,1023,395,993,450,959C566,888,592,858,598,785C602,734,602,733,570,721C519,704,440,708,395,730C320,767,237,834,216,875C190,924,189,1001,213,1048C229,1077,229,1083,216,1109C207,1125,198,1156,194,1179C180,1267,267,1376,365,1394C394,1400,400,1406,406,1435C417,1498,463,1555,525,1585C575,1610,588,1612,653,1607L725,1601L753,1641C803,1713,908,1746,1002,1720Z" transform="matrix(1 0 0 1 -553.17169159999992 -550.26905169999998)" fill="rgb(0,0,0)" stroke="none" stroke-width="1"/></g></g></g></svg>